<svg width="39" height="18" viewBox="0 0 39 18" fill="none" xmlns="http://www.w3.org/2000/svg">
<path d="M1.48214 7.59016C0.832407 7.5854 0.30189 8.10824 0.297194 8.75797C0.292497 9.4077 0.8154 9.93828 1.46513 9.94304L1.48214 7.59016ZM38.1157 9.86725C38.5784 9.41119 38.5838 8.66631 38.1277 8.20351L30.695 0.661784C30.2389 0.198986 29.494 0.193523 29.0313 0.649582C28.5685 1.10564 28.5631 1.85052 29.0192 2.31332L35.6261 9.01708L28.923 15.6232C28.4603 16.0793 28.4549 16.8242 28.911 17.287C29.3671 17.7498 30.112 17.7552 30.5747 17.2992L38.1157 9.86725ZM1.46513 9.94304L37.2813 10.2057L37.2983 7.85284L1.48214 7.59016L1.46513 9.94304Z" fill="#00FFA3"/>
</svg>
