<svg width="39" height="18" viewBox="0 0 39 18" fill="none" xmlns="http://www.w3.org/2000/svg">
<path d="M37.3313 10.1911C37.981 10.1953 38.5111 9.67205 38.5153 9.02232C38.5195 8.37259 37.9962 7.84244 37.3464 7.8382L37.3313 10.1911ZM0.695956 7.94375C0.233571 8.40018 0.228783 9.14506 0.685262 9.60749L8.12399 17.1432C8.58047 17.6056 9.32535 17.6105 9.78773 17.154C10.2501 16.6976 10.2549 15.9527 9.79843 15.4903L3.18623 8.7919L9.88399 2.18032C10.3464 1.72388 10.3512 0.978996 9.89468 0.516569C9.4382 0.0541413 8.69332 0.049283 8.23094 0.505717L0.695956 7.94375ZM37.3464 7.8382L1.53004 7.6046L1.51492 9.95749L37.3313 10.1911L37.3464 7.8382Z" fill="#00FFA3"/>
</svg>
