<svg width="1413" height="1478" viewBox="0 0 1413 1478" fill="none" xmlns="http://www.w3.org/2000/svg">
<g opacity="0.03">
<path d="M294.446 761.631L1043.53 329.145L1185.51 575.057L1157.14 591.439L1194.27 655.754L1092.82 628.571L436.424 1007.54L294.446 761.631Z" fill="#E6E6E6"/>
<path d="M1036.55 365.105L329.08 773.564L442.662 970.294L1150.13 561.835L1036.55 365.105Z" fill="white"/>
<path d="M759.762 601.492L419.133 798.155L425.101 808.492L765.73 611.83L759.762 601.492Z" fill="url(#paint0_linear)"/>
<path d="M1033.47 491.148L439.779 833.915L445.748 844.252L1039.44 501.486L1033.47 491.148Z" fill="#E6E6E6"/>
<path d="M1053.53 527.244L460.425 869.674L466.393 880.012L1059.5 537.581L1053.53 527.244Z" fill="#E6E6E6"/>
<path d="M1101.15 734.738L352.063 1167.22L494.042 1413.14L522.417 1396.76L559.549 1461.07L586.731 1359.62L1243.13 980.652L1101.15 734.738Z" fill="#E6E6E6"/>
<path d="M1094.17 770.7L386.698 1179.16L500.28 1375.89L1207.75 967.43L1094.17 770.7Z" fill="white"/>
<path d="M824.147 1005.7L483.518 1202.36L489.486 1212.7L830.115 1016.04L824.147 1005.7Z" fill="url(#paint1_linear)"/>
<path d="M1097.85 895.357L504.164 1238.12L510.132 1248.46L1103.82 905.694L1097.85 895.357Z" fill="#E6E6E6"/>
<path d="M1117.92 931.453L524.811 1273.88L530.779 1284.22L1123.89 941.791L1117.92 931.453Z" fill="#E6E6E6"/>
<path d="M721.087 76.4494L-28 508.935L113.977 754.847L142.352 738.465L179.485 802.781L206.667 701.332L863.064 322.361L721.087 76.4494Z" fill="#E6E6E6"/>
<path d="M714.106 112.411L6.63477 520.869L120.217 717.599L827.688 309.141L714.106 112.411Z" fill="white"/>
<path d="M444.083 347.412L103.454 544.074L109.422 554.411L450.052 357.749L444.083 347.412Z" fill="url(#paint2_linear)"/>
<path d="M717.789 237.068L124.101 579.834L130.069 590.171L723.757 247.405L717.789 237.068Z" fill="#E6E6E6"/>
<path d="M737.853 273.163L144.746 615.594L150.714 625.931L743.821 283.501L737.853 273.163Z" fill="#E6E6E6"/>
</g>
<defs>
<linearGradient id="paint0_linear" x1="589.447" y1="699.824" x2="595.416" y2="710.161" gradientUnits="userSpaceOnUse">
<stop stop-color="#00ACB7"/>
<stop offset="1" stop-color="#00FFA3"/>
</linearGradient>
<linearGradient id="paint1_linear" x1="653.832" y1="1104.03" x2="659.8" y2="1114.37" gradientUnits="userSpaceOnUse">
<stop stop-color="#00ACB7"/>
<stop offset="1" stop-color="#00FFA3"/>
</linearGradient>
<linearGradient id="paint2_linear" x1="273.769" y1="445.743" x2="279.737" y2="456.08" gradientUnits="userSpaceOnUse">
<stop stop-color="#00ACB7"/>
<stop offset="1" stop-color="#00FFA3"/>
</linearGradient>
</defs>
</svg>
