<svg width="794" height="828" viewBox="0 0 794 828" fill="none" xmlns="http://www.w3.org/2000/svg">
<path d="M400.98 828C563.352 828 694.98 804.719 694.98 776C694.98 747.281 563.352 724 400.98 724C238.609 724 106.98 747.281 106.98 776C106.98 804.719 238.609 828 400.98 828Z" fill="#3F3D56"/>
<path d="M562.677 648.659C562.677 712.676 602.837 764.477 652.468 764.477L562.677 648.659Z" fill="#3F3D56"/>
<path d="M652.468 764.477C652.468 699.741 697.284 647.358 752.669 647.358L652.468 764.477Z" fill="#00F0FF"/>
<path d="M595.209 654.463C595.209 715.271 620.818 764.477 652.467 764.477L595.209 654.463Z" fill="#00F0FF"/>
<path d="M652.468 764.477C652.468 681.759 704.269 614.825 768.285 614.825L652.468 764.477Z" fill="#3F3D56"/>
<path d="M633.578 765.293C633.578 765.293 646.312 764.901 650.15 762.168C653.987 759.436 669.737 756.172 670.689 760.555C671.641 764.938 689.826 782.353 675.45 782.469C661.073 782.585 642.045 780.229 638.215 777.896C634.385 775.563 633.578 765.293 633.578 765.293Z" fill="#141628"/>
<path opacity="0.2" d="M675.706 780.943C661.33 781.059 642.302 778.704 638.471 776.371C635.554 774.594 634.392 768.218 634.003 765.277C633.734 765.288 633.578 765.293 633.578 765.293C633.578 765.293 634.385 775.563 638.215 777.896C642.045 780.229 661.073 782.585 675.45 782.469C679.599 782.435 681.033 780.959 680.954 778.772C680.378 780.093 678.795 780.918 675.706 780.943Z" fill="black"/>
<path d="M357.829 157.682C358.998 158.218 360.405 157.419 361.094 156.333C363.718 152.198 358.887 146.867 359.933 142.084C360.771 138.251 365.126 135.976 366.016 132.156C366.881 128.443 364.215 124.259 366.017 120.899C367.429 118.268 370.955 117.575 373.906 118.036C376.857 118.497 379.657 119.794 382.638 119.976C386.61 120.218 390.397 118.47 394.281 117.603C398.165 116.737 402.903 117.076 405.188 120.334C408.121 124.518 405.145 130.343 406.167 135.35C406.978 139.325 410.306 142.617 410.378 146.674C410.403 148.116 406.613 146.954 406.814 148.382C407.016 149.81 405.224 148.553 406.656 148.383C407.241 148.24 407.765 147.915 408.152 147.454C408.54 146.993 408.771 146.421 408.811 145.82C408.982 144.631 411.217 144.234 411.191 143.033C411.13 140.218 416.22 142.116 417.059 139.428C418.986 133.161 418.591 126.409 415.944 120.41C414.803 117.849 413.248 115.425 412.698 112.676C411.95 108.943 413.126 104.936 411.893 101.335C410.231 96.4808 404.732 94.0065 399.626 93.504C394.52 93.0014 389.332 93.901 384.255 93.16C379.708 92.4961 375.305 90.5252 370.718 90.8108C365.214 91.1534 360.424 94.6998 356.609 98.6816C352.793 102.663 349.557 107.243 345.224 110.654C343.897 111.567 342.673 112.621 341.573 113.797C339.366 116.487 339.142 120.318 339.756 123.742C340.37 127.167 341.706 130.434 342.27 133.867C342.8 137.093 342.637 140.389 342.865 143.651C343.094 146.912 343.771 150.273 345.735 152.886C346.521 153.954 347.541 154.828 348.716 155.442C349.892 156.056 351.192 156.394 352.517 156.43C353.436 156.451 354.212 155.626 355.138 155.841C356.297 156.11 356.801 157.21 357.829 157.682Z" fill="#2F2E41"/>
<path d="M318.546 394.707L321.95 415.619L328.759 406.378L324.868 392.275L318.546 394.707Z" fill="#A0616A"/>
<path d="M322.923 236.651L317.562 250.777C317.562 250.777 312.224 322.73 312.224 328.08C312.224 333.43 316.114 402.002 317.573 404.92C317.573 404.92 323.895 395.679 332.163 397.138C340.431 398.597 337.026 372.822 337.026 372.822L344.807 309.113L343.348 277.016L322.923 236.651Z" fill="url(#paint0_linear)"/>
<path opacity="0.1" d="M322.923 236.651L317.562 250.777C317.562 250.777 312.224 322.73 312.224 328.08C312.224 333.43 316.114 402.002 317.573 404.92C317.573 404.92 323.895 395.679 332.163 397.138C340.431 398.597 337.026 372.822 337.026 372.822L344.807 309.113L343.348 277.016L322.923 236.651Z" fill="black"/>
<path d="M355.993 158.838C355.993 158.838 372.042 199.69 362.802 207.471C353.561 215.252 414.352 194.34 414.352 194.34L412.893 188.991C412.893 188.991 392.954 181.209 402.68 158.838C412.407 136.467 355.993 158.838 355.993 158.838Z" fill="#FFB8B8"/>
<path opacity="0.1" d="M355.993 158.838C355.993 158.838 372.042 199.69 362.802 207.471C353.561 215.252 414.352 194.34 414.352 194.34L412.893 188.991C412.893 188.991 392.954 181.209 402.68 158.838C412.407 136.467 355.993 158.838 355.993 158.838Z" fill="#FFB8B8"/>
<path d="M330.704 704.496C330.704 704.496 323.896 702.551 320.005 707.415C316.114 712.278 301.525 724.436 301.525 724.436C301.525 724.436 273.318 721.518 269.427 735.621C265.537 749.725 313.683 749.725 325.355 746.321C337.026 742.916 339.458 746.321 339.458 746.321C339.458 746.321 375.446 749.239 375.446 743.403C375.446 737.567 372.042 717.627 372.042 717.627L330.704 704.496Z" fill="url(#paint1_linear)"/>
<path d="M444.991 737.08L438.668 756.533C438.668 756.533 419.702 782.795 430.401 788.145C441.1 793.494 479.033 798.844 479.033 784.74V757.992C479.033 757.992 475.143 739.026 471.252 737.08C467.362 735.135 444.991 737.08 444.991 737.08Z" fill="url(#paint2_linear)"/>
<path d="M337.591 387.591C337.591 387.591 317.087 405.406 317.573 407.837C318.059 410.269 327.786 566.38 327.786 566.38L333.135 667.536C333.135 667.536 326.327 691.366 329.731 696.715C333.135 702.065 324.868 703.524 324.868 703.524C324.868 703.524 359.883 735.135 374.473 721.518L388.09 544.981L425.537 673.372C425.537 673.372 431.86 741.457 439.155 741.457C446.449 741.457 476.115 742.916 475.629 739.026C475.143 735.135 477.088 705.469 473.684 687.961C470.279 670.454 447.422 531.851 447.422 531.851C447.422 531.851 445.457 413.029 450.573 401.922C455.69 390.816 447.908 379.144 447.908 379.144L413.866 366.013L373.014 370.877L337.591 387.591Z" fill="#2F2E41"/>
<path d="M378.85 175.374C397.652 175.374 412.893 160.132 412.893 141.331C412.893 122.529 397.652 107.288 378.85 107.288C360.049 107.288 344.808 122.529 344.808 141.331C344.808 160.132 360.049 175.374 378.85 175.374Z" fill="#FFB8B8"/>
<path d="M461.526 214.766C459.844 210.008 457.01 205.741 453.275 202.346C449.541 198.951 445.024 196.535 440.128 195.313C430.318 192.845 420.722 189.593 411.434 185.586C411.434 185.586 376.905 202.122 370.097 202.122C363.288 202.122 363.288 197.745 363.288 197.745C363.288 197.745 345.78 216.225 336.54 218.17C327.3 220.116 313.683 242.973 318.546 255.617C321.849 263.724 326.632 271.145 332.649 277.502C332.649 277.502 330.704 345.588 337.026 358.232C337.026 358.232 321.464 387.898 336.054 389.843C350.643 391.789 406.571 384.98 416.298 391.789C426.024 398.597 444.018 390.33 446.45 399.57C448.881 408.81 454.231 410.755 454.231 410.755C454.231 410.755 462.499 397.625 457.635 389.843C452.772 382.062 461.526 214.766 461.526 214.766Z" fill="url(#paint3_linear)"/>
<path d="M425.538 397.625L417.757 402.488C417.757 402.488 426.024 431.181 429.429 432.154C432.833 433.126 440.846 407.619 440.846 407.619L425.538 397.625Z" fill="#FFB8B8"/>
<path d="M351.993 154.277C353.162 154.813 354.569 154.014 355.258 152.929C357.882 148.794 353.051 143.463 354.097 138.679C354.935 134.847 359.29 132.572 360.18 128.751C361.046 125.039 358.38 120.854 360.181 117.495C361.593 114.863 365.12 114.171 368.07 114.632C371.021 115.093 373.822 116.39 376.802 116.572C380.775 116.814 384.561 115.065 388.445 114.199C392.329 113.333 397.067 113.672 399.352 116.93C402.285 121.114 399.309 126.939 400.331 131.945C401.142 135.921 410.384 138.711 411.223 136.023C413.15 129.756 412.755 123.005 410.109 117.006C408.967 114.445 407.413 112.021 406.862 109.272C406.114 105.539 407.291 101.532 406.057 97.9303C404.395 93.0765 398.896 90.6023 393.79 90.0997C388.685 89.5972 383.496 90.4967 378.419 89.7557C373.872 89.0919 369.469 87.1209 364.882 87.4065C359.378 87.7491 354.588 91.2955 350.773 95.2773C346.958 99.2592 343.721 103.839 339.388 107.25C338.061 108.163 336.837 109.217 335.737 110.393C333.53 113.082 333.307 116.914 333.92 120.338C334.534 123.763 335.87 127.029 336.434 130.462C336.965 133.689 336.801 136.985 337.029 140.246C337.258 143.508 337.935 146.868 339.899 149.482C340.685 150.55 341.705 151.424 342.881 152.038C344.056 152.652 345.356 152.99 346.682 153.025C347.6 153.047 348.376 152.221 349.303 152.437C350.461 152.706 350.965 153.806 351.993 154.277Z" fill="#2F2E41"/>
<path opacity="0.1" d="M442.316 223.277L458.122 214.766C458.122 214.766 496.542 306.195 487.301 331.484C478.061 356.773 442.559 408.81 442.559 408.81C442.559 408.81 414.352 402.974 417.27 397.138C420.188 391.302 439.155 353.855 440.614 348.992C442.073 344.129 451.799 312.518 447.423 309.113C443.046 305.709 434.535 226.681 434.535 226.681L442.316 223.277Z" fill="black"/>
<path d="M442.073 209.416L461.526 214.766C461.526 214.766 499.946 306.195 490.706 331.484C481.465 356.773 445.964 408.81 445.964 408.81C445.964 408.81 417.757 402.974 420.675 397.138C423.593 391.302 442.559 353.855 444.018 348.992C445.477 344.129 455.204 312.518 450.827 309.113C446.45 305.709 425.538 221.574 425.538 221.574L442.073 209.416Z" fill="url(#paint4_linear)"/>
<defs>
<linearGradient id="paint0_linear" x1="328.516" y1="236.651" x2="328.516" y2="404.92" gradientUnits="userSpaceOnUse">
<stop stop-color="#00ACB7"/>
<stop offset="1" stop-color="#00FFA3"/>
</linearGradient>
<linearGradient id="paint1_linear" x1="322.325" y1="704.112" x2="322.325" y2="748.194" gradientUnits="userSpaceOnUse">
<stop stop-color="#00ACB7"/>
<stop offset="1" stop-color="#00FFA3"/>
</linearGradient>
<linearGradient id="paint2_linear" x1="453.081" y1="736.216" x2="453.081" y2="793.755" gradientUnits="userSpaceOnUse">
<stop stop-color="#00ACB7"/>
<stop offset="1" stop-color="#00FFA3"/>
</linearGradient>
<linearGradient id="paint3_linear" x1="389.526" y1="185.586" x2="389.526" y2="410.755" gradientUnits="userSpaceOnUse">
<stop stop-color="#00ACB7"/>
<stop offset="1" stop-color="#00FFA3"/>
</linearGradient>
<linearGradient id="paint4_linear" x1="456.302" y1="209.416" x2="456.302" y2="408.81" gradientUnits="userSpaceOnUse">
<stop stop-color="#00ACB7"/>
<stop offset="1" stop-color="#00FFA3"/>
</linearGradient>
</defs>
</svg>
