<svg width="84" height="87" viewBox="0 0 84 87" fill="none" xmlns="http://www.w3.org/2000/svg">
<rect x="27.241" y="14.5968" width="40.8559" height="40.8559" transform="rotate(18.0272 27.241 14.5968)" stroke="white" stroke-width="1.5705"/>
<rect x="30.4158" y="20.8353" width="40.8559" height="40.8559" transform="rotate(18.0272 30.4158 20.8353)" stroke="white" stroke-width="1.5705"/>
<path d="M30 54.15C29.05 54.15 28.2583 53.825 27.625 53.175C26.9917 52.525 26.675 51.5083 26.675 50.125C26.675 48.8917 26.9167 47.6 27.4 46.25C27.9 44.8833 28.6333 43.7333 29.6 42.8C30.5833 41.85 31.75 41.375 33.1 41.375C33.7833 41.375 34.2917 41.4917 34.625 41.725C34.9583 41.9583 35.125 42.2667 35.125 42.65V42.825L35.4 41.5H39L37.2 50C37.1333 50.25 37.1 50.5167 37.1 50.8C37.1 51.5167 37.4417 51.875 38.125 51.875C38.5917 51.875 38.9917 51.6583 39.325 51.225C39.675 50.7917 39.95 50.225 40.15 49.525H41.2C40.5833 51.325 39.8167 52.55 38.9 53.2C38 53.8333 37.0917 54.15 36.175 54.15C35.475 54.15 34.9083 53.9583 34.475 53.575C34.0583 53.175 33.8083 52.6 33.725 51.85C33.2417 52.5333 32.7 53.0917 32.1 53.525C31.5167 53.9417 30.8167 54.15 30 54.15ZM31.625 51.725C32.0417 51.725 32.45 51.5333 32.85 51.15C33.2667 50.75 33.55 50.2083 33.7 49.525L34.9 43.875C34.9 43.6583 34.8167 43.45 34.65 43.25C34.4833 43.0333 34.225 42.925 33.875 42.925C33.2083 42.925 32.6083 43.3167 32.075 44.1C31.5417 44.8667 31.125 45.8 30.825 46.9C30.525 47.9833 30.375 48.9417 30.375 49.775C30.375 50.6083 30.4917 51.1417 30.725 51.375C30.975 51.6083 31.275 51.725 31.625 51.725ZM43.6592 54.15C42.7092 54.15 41.9175 53.825 41.2842 53.175C40.6508 52.525 40.3342 51.5083 40.3342 50.125C40.3342 48.8917 40.5758 47.6 41.0592 46.25C41.5592 44.8833 42.2925 43.7333 43.2592 42.8C44.2425 41.85 45.4092 41.375 46.7592 41.375C47.4425 41.375 47.9508 41.4917 48.2842 41.725C48.6175 41.9583 48.7842 42.2667 48.7842 42.65V42.75L50.0092 37L53.7092 36.5L50.8342 50C50.7675 50.25 50.7342 50.4917 50.7342 50.725C50.7342 51.3917 51.0758 51.725 51.7592 51.725C52.0592 51.725 52.3258 51.675 52.5592 51.575C52.4925 52.4083 52.1925 53.05 51.6592 53.5C51.1425 53.9333 50.5258 54.15 49.8092 54.15C49.1425 54.15 48.5758 53.9833 48.1092 53.65C47.6592 53.3 47.3592 52.775 47.2092 52.075C46.2092 53.4583 45.0258 54.15 43.6592 54.15ZM45.2842 51.725C45.6508 51.725 46.0175 51.5667 46.3842 51.25C46.7675 50.9333 47.0508 50.4917 47.2342 49.925L47.3342 49.525L48.5592 43.8C48.4092 43.2167 48.0675 42.925 47.5342 42.925C46.8675 42.925 46.2675 43.3167 45.7342 44.1C45.2008 44.8667 44.7842 45.8 44.4842 46.9C44.1842 47.9833 44.0342 48.9417 44.0342 49.775C44.0342 50.6083 44.1508 51.1417 44.3842 51.375C44.6342 51.6083 44.9342 51.725 45.2842 51.725Z" fill="white"/>
</svg>
